<svg viewBox="0 0 112 16" fill="none" xmlns="http://www.w3.org/2000/svg"><path d="M9.17 3.6v8.4h-.87v-3.88h-5.26v3.88h-.89v-8.4h.9v3.74h5.25v-3.74h.87Zm4.38.77h-2.96v-.77h6.8v.77h-2.96v7.63h-.88v-7.63Zm13.98-.77v8.4h-.85v-6.72l-3.3 5.65h-.42l-3.3-5.61v6.68h-.85v-8.4h.73l3.65 6.23 3.6-6.23h.74Zm2.74 0h.88v7.63h4.7v.77h-5.58v-8.4Zm15.47 6.16h-4.68l-1 2.24h-.93l3.84-8.4h.88l3.84 8.4h-.94l-1-2.24Zm-.32-.72-2.02-4.52-2.01 4.52h4.03Zm6.03 3.02a3.6 3.6 0 0 1-1.68-.4 2.98 2.98 0 0 1-1.15-1.15 3.33 3.33 0 0 1-.42-1.67c0-.61.14-1.16.42-1.65.28-.49.66-.87 1.15-1.14.5-.27 1.06-.41 1.68-.41.55 0 1.03.1 1.45.32.44.21.78.52 1.02.93l-.63.43a2 2 0 0 0-.8-.7 2.47 2.47 0 0 0-2.28.07c-.35.2-.64.5-.85.87-.2.38-.3.8-.3 1.28 0 .5.1.92.3 1.3a2.27 2.27 0 0 0 2.1 1.16 2.04 2.04 0 0 0 1.83-.92l.63.43c-.24.41-.58.72-1.02.94-.43.2-.91.31-1.45.31Zm6.36-6.42c.82 0 1.45.2 1.9.62.43.41.65 1.02.65 1.83v3.91h-.81v-.98a2 2 0 0 1-.86.76c-.36.19-.8.28-1.32.28a2.6 2.6 0 0 1-1.68-.5 1.63 1.63 0 0 1-.62-1.34c0-.53.2-.96.58-1.3.39-.32 1-.48 1.86-.48h2v-.39c0-.54-.15-.95-.46-1.23-.3-.3-.74-.44-1.33-.44a3.3 3.3 0 0 0-2.1.75l-.38-.64c.32-.27.7-.48 1.15-.62.45-.15.92-.23 1.42-.23Zm-.3 5.75c.48 0 .89-.11 1.23-.33a2 2 0 0 0 .77-.96v-1.03h-1.98c-1.08 0-1.62.38-1.62 1.13 0 .37.14.66.42.88a2 2 0 0 0 1.18.3Zm10.95-8.3v8.91h-.82v-1.25c-.25.43-.6.75-1.02.97-.41.23-.88.34-1.41.34a3.2 3.2 0 0 1-1.61-.4 2.92 2.92 0 0 1-1.13-1.15 3.37 3.37 0 0 1-.4-1.67c0-.62.13-1.18.4-1.66.27-.5.65-.87 1.13-1.13a3.2 3.2 0 0 1 2.99-.09c.41.21.75.52 1.02.93v-3.8h.85Zm-3.18 8.21c.44 0 .84-.1 1.19-.3.36-.2.64-.5.84-.87.2-.38.31-.8.31-1.29 0-.48-.1-.9-.31-1.28a2.3 2.3 0 0 0-2.03-1.18c-.45 0-.85.1-1.21.32-.35.2-.63.48-.84.86-.2.38-.3.8-.3 1.28s.1.91.3 1.29a2.2 2.2 0 0 0 2.05 1.17Zm11.05-2.2h-5.28c.05.66.3 1.2.75 1.6.46.4 1.04.6 1.73.6a2.42 2.42 0 0 0 1.93-.83l.48.56c-.28.33-.63.59-1.05.77a3.5 3.5 0 0 1-1.38.26c-.65 0-1.23-.14-1.73-.4-.5-.29-.88-.67-1.16-1.16a3.27 3.27 0 0 1-.42-1.66c0-.61.13-1.16.4-1.65a2.97 2.97 0 0 1 2.68-1.55 2.88 2.88 0 0 1 2.66 1.55c.27.48.4 1.03.4 1.65l-.01.27Zm-3.05-2.73a2.2 2.2 0 0 0-2.24 2.1h4.48a2.25 2.25 0 0 0-.7-1.51 2.1 2.1 0 0 0-1.54-.59Zm12.67-.73c.79 0 1.4.23 1.86.68.45.46.68 1.13.68 2.02v3.66h-.85v-3.58c0-.65-.16-1.15-.48-1.5-.31-.34-.76-.51-1.33-.51a2 2 0 0 0-1.55.61c-.38.4-.57.96-.57 1.67v3.31h-.85v-3.58c0-.65-.16-1.15-.48-1.5-.3-.34-.76-.51-1.34-.51-.65 0-1.17.2-1.55.61-.38.4-.56.96-.56 1.67v3.31h-.86v-6.31h.82v1.15c.22-.38.54-.68.94-.89a3.05 3.05 0 0 1 2.74.03c.4.22.69.55.88 1 .23-.42.56-.75 1-.98.44-.24.94-.36 1.5-.36Zm10.04.05-3.16 7.07c-.25.59-.55 1-.89 1.26-.33.24-.74.37-1.2.37-.31 0-.6-.05-.86-.15-.26-.1-.5-.24-.68-.43l.4-.63c.31.32.7.48 1.14.48.3 0 .54-.08.74-.24.2-.16.4-.44.57-.82l.28-.61-2.82-6.3h.89l2.37 5.36 2.38-5.36h.84Zm15.23.06-5.25-3.25-5.19 3.25v-4.34l5.22-.58 5.22.58v4.34Zm0 .58-2.1 1.3-3.14-1.97v.57l2.68 1.68-.46.29-2.22-1.4v.58l1.75 1.1-.41.29h-.01l-1.33-.82v.58l.87.53-.89.56-5.16-3.23 5.17-3.28 5.24 3.22Zm0 5.44-5.22 3.27-5.22-3.27v-4.74l5.2 3.25v.59l-3.56-2.23v.57l3.58 2.26v.6l-3.57-2.23v.57l3.57 2.26 3.6-2.27v-2.44l1.62-1.01v4.82Zm-5.22-11.77-6 .66v11.58l6 3.76 6-3.76v-11.58l-6-.66Z" fill="#BDBDBD"/></svg>